<?xml version="1.0" encoding="utf-8"?>
<!-- Generator: Adobe Illustrator 19.0.0, SVG Export Plug-In . SVG Version: 6.00 Build 0)  -->
<svg version="1.1" id="Layer_1" xmlns="http://www.w3.org/2000/svg" xmlns:xlink="http://www.w3.org/1999/xlink" x="0px" y="0px"
	 viewBox="0 0 20.5 20.5" style="enable-background:new 0 0 20.5 20.5;" xml:space="preserve">
<g id="XMLID_61_">
	<path id="XMLID_14_" d="M19.7,8.8l-1.7-1.7V4.6c0-1.1-0.9-2.1-2.1-2.1h-2.4l-1.7-1.7C10.9,0,9.6,0,8.8,0.8L7.1,2.6H4.7
		c-1.1,0-2.1,0.9-2.1,2.1v2.4L0.9,8.8c-0.8,0.8-0.8,2.1,0,2.9l1.7,1.7v2.4c0,1.1,0.9,2.1,2.1,2.1h2.4l1.7,1.7
		c0.4,0.4,0.9,0.6,1.5,0.6c0.5,0,1.1-0.2,1.5-0.6l1.7-1.7h2.4c1.1,0,2.1-0.9,2.1-2.1v-2.4l1.7-1.7C20.5,10.9,20.5,9.6,19.7,8.8z"/>
	<g id="XMLID_3_">
		<path id="XMLID_4_" style="fill:#FFFFFF;" d="M5.3,6.9c0-0.6,0.2-1.2,0.6-1.6s1-0.6,1.8-0.6c0.8,0,1.4,0.2,1.8,0.6
			c0.4,0.4,0.6,0.9,0.6,1.6v0.6c0,0.6-0.2,1.2-0.6,1.6c-0.4,0.4-1,0.6-1.8,0.6C7,9.7,6.4,9.5,6,9.1C5.5,8.7,5.3,8.1,5.3,7.5V6.9z
			 M6.9,7.5c0,0.2,0.1,0.4,0.2,0.6c0.1,0.2,0.3,0.2,0.6,0.2c0.3,0,0.4-0.1,0.6-0.2c0.1-0.2,0.2-0.4,0.2-0.6V6.9
			c0-0.2-0.1-0.4-0.2-0.6C8.2,6.1,8,6.1,7.7,6.1c-0.3,0-0.4,0.1-0.6,0.3C7,6.5,6.9,6.7,6.9,6.9V7.5z M8.1,14.8L7,14.2l5.2-8.4
			l1.2,0.6L8.1,14.8z M10.4,13c0-0.6,0.2-1.2,0.6-1.6c0.4-0.4,1-0.6,1.8-0.6c0.8,0,1.4,0.2,1.8,0.6c0.4,0.4,0.6,0.9,0.6,1.6v0.6
			c0,0.6-0.2,1.2-0.6,1.6c-0.4,0.4-1,0.6-1.8,0.6c-0.8,0-1.4-0.2-1.8-0.6c-0.4-0.4-0.6-0.9-0.6-1.6V13z M12,13.5
			c0,0.2,0.1,0.4,0.2,0.6c0.2,0.2,0.3,0.3,0.6,0.3c0.3,0,0.5-0.1,0.6-0.2c0.1-0.2,0.2-0.4,0.2-0.6V13c0-0.2-0.1-0.4-0.2-0.6
			c-0.1-0.2-0.3-0.3-0.6-0.3c-0.3,0-0.5,0.1-0.6,0.3C12.1,12.5,12,12.7,12,13V13.5z"/>
	</g>
</g>
</svg>
